<svg id="_x35_0" enable-background="new 0 0 512 512" height="512" viewBox="0 0 512 512" width="512" xmlns="http://www.w3.org/2000/svg"><g><g><circle cx="256" cy="256" fill="#efb732" r="256"/></g><g><g><path d="m462.93 406.75c-46.56 63.8-121.91 105.25-206.93 105.25s-160.37-41.45-206.93-105.25z" fill="#d48d77"/><g fill="#eea47d"><path d="m380.58 406.75v72.95c-6.668 3.708-13.507 7.145-20.48 10.25v-83.2z"/><path d="m462.92 406.75c-4.978 6.838-10.303 13.422-15.94 19.73v-19.73z"/><path d="m200.532 406.75v42.24c0 5.66-4.59 10.25-10.25 10.25-5.65 0-10.24-4.59-10.24-10.25v-42.24z"/><path d="m305.71 437.94v69.23c-6.74 1.33-13.57 2.39-20.49 3.17v-72.4c0-5.65 4.59-10.24 10.24-10.24 5.656.004 10.249 4.576 10.25 10.24z"/><path d="m427.21 434.63v11.68c-6.53 5.9-13.37 11.45-20.49 16.63v-28.31c.528-13.576 19.964-13.571 20.49 0z"/><path d="m248.63 406.75v105.14c-6.849-.186-13.674-.653-20.48-1.39v-103.75z"/><path d="m163.68 460.62v34.23c-6.98-2.7-13.81-5.7-20.48-8.98v-25.25c.518-13.58 19.966-13.573 20.48 0z"/><path d="m95.83 407.27v48.44c-7.145-5.736-13.984-11.856-20.48-18.32v-30.12c0-.17 0-.35.01-.52h20.46c.01.18.01.35.01.52z"/></g></g></g><g><path d="m282.896 330.024h-53.792c-9.524 0-17.245 7.721-17.245 17.245v71.037h88.281v-71.037c.001-9.525-7.72-17.245-17.244-17.245z" fill="#334353"/><path d="m357.139 418.305h-202.278c-10.329 0-18.702 8.373-18.702 18.703 0 10.329 8.373 18.703 18.702 18.703h202.279c10.329 0 18.703-8.373 18.703-18.703-.001-10.33-8.374-18.703-18.704-18.703z" fill="#334353"/><path d="m318.361 418.305h-124.722c-6.369 0-11.532 5.163-11.532 11.532 0 6.369 5.163 11.532 11.532 11.532h124.722c6.369 0 11.532-5.163 11.532-11.532-.001-6.369-5.163-11.532-11.532-11.532z" fill="#3e4e60"/><path d="m446.321 126.531v211.03c0 5.754-1.71 11.132-4.665 15.629-3.707 5.754-9.421 10.043-16.173 11.923-2.462.713-5.093 1.089-7.75 1.089h-323.465c-2.709 0-5.287-.376-7.75-1.089-6.752-1.879-12.467-6.169-16.173-11.923-2.955-4.497-4.665-9.875-4.665-15.629v-211.03c0-2.657.376-5.287 1.075-7.75 2.67-9.551 10.173-17.093 19.763-19.763 2.462-.7 5.093-1.076 7.75-1.076h323.465c2.709 0 5.287.376 7.75 1.076 9.551 2.67 17.093 10.173 19.763 19.763.699 2.462 1.075 5.093 1.075 7.75z" fill="#3f5d77"/><path d="m107.37 126.531v211.03c0 5.754-1.711 11.132-4.678 15.629-3.706 5.754-9.421 10.043-16.173 11.923-6.752-1.879-12.467-6.169-16.173-11.923-2.955-4.497-4.665-9.875-4.665-15.629v-211.03c0-13.089 8.786-24.13 20.838-27.513 12.051 3.383 20.851 14.424 20.851 27.513z" fill="#3e4e60"/><path d="m446.321 126.531v211.03c0 5.754-1.71 11.132-4.665 15.629-3.707 5.754-9.421 10.043-16.173 11.923-6.752-1.879-12.467-6.169-16.173-11.923-2.968-4.497-4.678-9.875-4.678-15.629v-211.03c0-13.128 8.838-24.169 20.852-27.513 11.999 3.344 20.837 14.385 20.837 27.513z" fill="#3f6c8e"/><path d="m446.321 307.21v30.351c0 5.754-1.71 11.132-4.665 15.629-3.707 5.754-9.421 10.043-16.173 11.923-2.462.713-5.093 1.089-7.75 1.089h-323.465c-2.709 0-5.287-.376-7.75-1.089-6.752-1.879-12.467-6.169-16.173-11.923-2.955-4.497-4.665-9.875-4.665-15.629v-30.351z" fill="#3e4e60"/><path d="m107.37 307.21v30.351c0 5.754-1.711 11.132-4.678 15.629-3.706 5.754-9.421 10.043-16.173 11.923-6.752-1.879-12.467-6.169-16.173-11.923-2.955-4.497-4.665-9.875-4.665-15.629v-30.351z" fill="#334353"/><path d="m446.321 307.21v30.351c0 5.754-1.71 11.132-4.665 15.629-3.707 5.754-9.421 10.043-16.173 11.923-6.752-1.879-12.467-6.169-16.173-11.923-2.968-4.497-4.678-9.875-4.678-15.629v-30.351z" fill="#3f5d77"/><path d="m278.767 336.705h-45.534c-5.866 0-10.622 4.755-10.622 10.622 0 5.866 4.755 10.622 10.622 10.622h45.534c5.866 0 10.622-4.755 10.622-10.622 0-5.866-4.756-10.622-10.622-10.622z" fill="#334353"/><path d="m340.881 118.788h-135.473c-5.756 0-10.423-4.666-10.423-10.423 0-5.756 4.666-10.423 10.423-10.423h135.473c5.756 0 10.423 4.666 10.423 10.423 0 5.756-4.666 10.423-10.423 10.423z" fill="#3f6c8e"/><g><path d="m407.423 328.995h-302.846c-9.97 0-18.053-8.083-18.053-18.053v-174.102c0-9.97 8.083-18.053 18.053-18.053h302.845c9.97 0 18.053 8.083 18.053 18.053v174.102c0 9.97-8.082 18.053-18.052 18.053z" fill="#ea792e"/><path d="m136.158 118.788h239.684v210.207h-239.684z" fill="#f39e22"/><g><g><path d="m203.494 214.901h-28.095c-4.658 0-8.434-3.776-8.434-8.434v-63.176c0-4.658 3.776-8.434 8.434-8.434h63.176c4.658 0 8.434 3.776 8.434 8.434v28.095c0 2.237-.889 4.382-2.47 5.964l-35.082 35.082c-1.581 1.58-3.726 2.469-5.963 2.469z" fill="#fff"/><circle cx="239.289" cy="207.181" fill="#fff" r="7.72"/><path d="m194.504 205.911h-10.114c-4.658 0-8.434-3.776-8.434-8.434v-45.196c0-4.658 3.776-8.434 8.434-8.434h45.196c4.658 0 8.434 3.776 8.434 8.434v10.114c0 2.237-.889 4.382-2.47 5.964l-35.082 35.082c-1.582 1.581-3.727 2.47-5.964 2.47z" fill="#e9465e"/></g><g><path d="m301.519 214.901h-28.095c-4.658 0-8.434-3.776-8.434-8.434v-63.176c0-4.658 3.776-8.434 8.434-8.434h63.176c4.658 0 8.434 3.776 8.434 8.434v28.095c0 2.237-.889 4.382-2.47 5.964l-35.082 35.082c-1.581 1.58-3.726 2.469-5.963 2.469z" fill="#fff"/><circle cx="337.314" cy="207.181" fill="#fff" r="7.72"/><path d="m292.529 205.911h-10.114c-4.658 0-8.434-3.776-8.434-8.434v-45.196c0-4.658 3.776-8.434 8.434-8.434h45.196c4.658 0 8.434 3.776 8.434 8.434v10.114c0 2.237-.889 4.382-2.47 5.964l-35.082 35.082c-1.582 1.581-3.727 2.47-5.964 2.47z" fill="#53b976"/></g><g><path d="m203.494 312.926h-28.095c-4.658 0-8.434-3.776-8.434-8.434v-63.176c0-4.658 3.776-8.434 8.434-8.434h63.176c4.658 0 8.434 3.776 8.434 8.434v28.095c0 2.237-.889 4.382-2.47 5.964l-35.082 35.082c-1.581 1.58-3.726 2.469-5.963 2.469z" fill="#fff"/><circle cx="239.289" cy="305.206" fill="#fff" r="7.72"/><path d="m194.504 303.936h-10.114c-4.658 0-8.434-3.776-8.434-8.434v-45.196c0-4.658 3.776-8.434 8.434-8.434h45.196c4.658 0 8.434 3.776 8.434 8.434v10.114c0 2.237-.889 4.382-2.47 5.964l-35.082 35.082c-1.582 1.581-3.727 2.47-5.964 2.47z" fill="#22bce0"/></g><g><path d="m301.519 312.926h-28.095c-4.658 0-8.434-3.776-8.434-8.434v-63.176c0-4.658 3.776-8.434 8.434-8.434h63.176c4.658 0 8.434 3.776 8.434 8.434v28.095c0 2.237-.889 4.382-2.47 5.964l-35.082 35.082c-1.581 1.58-3.726 2.469-5.963 2.469z" fill="#fff"/><circle cx="337.314" cy="305.206" fill="#fff" r="7.72"/><path d="m292.529 303.936h-10.114c-4.658 0-8.434-3.776-8.434-8.434v-45.196c0-4.658 3.776-8.434 8.434-8.434h45.196c4.658 0 8.434 3.776 8.434 8.434v10.114c0 2.237-.889 4.382-2.47 5.964l-35.082 35.082c-1.582 1.581-3.727 2.47-5.964 2.47z" fill="#6c7ed5"/></g></g></g></g></g></svg>