<svg id="_x35_0" enable-background="new 0 0 512 512" height="512" viewBox="0 0 512 512" width="512" xmlns="http://www.w3.org/2000/svg"><g><g><circle cx="256" cy="256" fill="#14a36d" r="256"/><circle cx="256" cy="256" fill="#15be79" r="198.396"/></g><g><g><g><path d="m71.645 232.449h259.131v35.677h-259.131z" fill="#334353" transform="matrix(.707 -.707 .707 .707 -118.047 215.585)"/><path d="m296.148 161.992-175.733 175.734c-2.813 2.813-6.334 4.469-9.989 5.011l-13.446-13.447 183.233-183.233z" fill="#3e4e60"/><path d="m186.529 255.677c4.4 4.4 11.535 4.4 15.935 0l54.345-54.345c4.4-4.4 4.4-11.535 0-15.935-4.4-4.4-11.535-4.4-15.935 0l-54.345 54.345c-4.401 4.4-4.401 11.534 0 15.935z" fill="#3f5d77"/></g><g><path d="m341.962 68.513-69.716 69.716c-.239.239-.458.478-.687.727-6.673 7.41-6.444 18.833.697 25.974l14.322 14.322c7.37 7.37 19.321 7.37 26.691 0l69.716-69.716c7.33-7.33 7.37-19.182.129-26.562l-14.451-14.451c-7.38-7.38-19.331-7.38-26.701-.01z" fill="#2e3140"/><path d="m341.962 68.513-69.716 69.716c-.239.239-.458.478-.687.727 1.334 3.804 3.526 7.37 6.563 10.408l1.822 1.822c10.826 10.826 28.374 10.826 39.2 0l57.217-57.217c3.197-3.197 5.438-6.972 6.753-10.995l-14.451-14.451c-7.38-7.38-19.331-7.38-26.701-.01z" fill="#334353"/><path d="m296.253 134.734c5.664 5.664 14.847 5.664 20.511 0l32.052-32.052c5.664-5.664 5.664-14.847 0-20.511-5.664-5.664-14.847-5.664-20.511 0l-32.052 32.052c-5.664 5.663-5.664 14.846 0 20.511z" fill="#3e4e60"/></g><g><path d="m302.346 72.534 17.797 17.797 16.065-16.065-17.797-17.797c-4.436-4.436-11.628-4.436-16.065 0-4.436 4.436-4.436 11.629 0 16.065z" fill="#2e3140"/><g><g><path d="m197.603 119.615c-3.198 3.198-3.198 8.389 0 11.587 16.129 16.129 34.633 7.195 47.147-.938 4.438-2.885 9.2-6.419 14.379-10.648 14.24-11.598 31.632-28.388 54.261-51.017 3.198-3.198 3.198-8.389 0-11.587s-8.389-3.198-11.587 0c-11.007 11.007-20.729 20.59-29.395 28.793-14.993 14.228-26.789 24.355-36.58 30.716-16.638 10.799-22.281 7.45-26.638 3.094-3.198-3.198-8.389-3.198-11.587 0z" fill="#2e3140"/></g><path d="m197.603 119.615c-3.198 3.198-3.198 8.389 0 11.587 8.933 8.933 18.597 10.185 27.565 8.122 7.23-1.645 13.997-5.423 19.582-9.061 4.438-2.885 9.2-6.419 14.379-10.648 7.056-10.324 11.482-21.911 13.279-33.81-14.993 14.228-26.789 24.355-36.58 30.716-1.251.811-2.445 1.541-3.569 2.202-13.904 8.088-19.037 4.924-23.069.892-3.198-3.198-8.389-3.198-11.587 0z" fill="#334353"/><path d="m197.603 119.615c-3.198 3.198-3.198 8.389 0 11.587 8.933 8.933 18.597 10.185 27.565 8.122 3.256-6.593 5.631-13.533 7.091-20.601-13.904 8.088-19.037 4.924-23.069.892-3.198-3.198-8.389-3.198-11.587 0z" fill="#3e4e60"/></g></g><path d="m75.334 370.333 5.83 5.83c3.542 3.542 9.182 3.854 13.093.724l27.95-22.37-25.227-25.227-22.37 27.95c-3.13 3.912-2.818 9.551.724 13.093z" fill="#2e3140"/><path d="m84.125 367.373c2.778 2.778 2.778 7.281 0 10.059l-8.497 8.497c-2.778 2.778-7.281 2.778-10.059 0-2.778-2.778-2.778-7.281 0-10.059l8.497-8.497c2.778-2.778 7.281-2.778 10.059 0z" fill="#334353"/></g><g><g><g><path d="m374.885 381.573-42.273-73.22-66.934 38.644 42.274 73.22c2.347 4.065 8.553 2.507 8.7-2.185l.262-8.341.873-27.285c.313-9.79 10.8-15.845 19.435-11.221l24.066 12.887 7.355 3.944c4.137 2.217 8.589-2.378 6.242-6.443z" fill="#f9c744"/><path d="m281.58 351.257 32.466 56.232c.704 1.219 1.747 1.929 2.868 2.2l.873-27.285c.313-9.79 10.8-15.845 19.435-11.221l24.066 12.887c.326-1.106.232-2.365-.472-3.584l-32.466-56.232z" fill="#fff"/></g><g><path d="m180.008 308.655-42.274 73.22c-2.347 4.065 2.106 8.66 6.243 6.442l7.355-3.944 24.066-12.887c8.635-4.624 19.122 1.431 19.435 11.221l.873 27.285.262 8.341c.147 4.692 6.353 6.251 8.7 2.185l42.274-73.22z" fill="#f39e22"/><path d="m184.269 324.557-32.466 56.232c-.704 1.219-.797 2.478-.472 3.584l24.066-12.887c8.635-4.624 19.122 1.431 19.435 11.221l.873 27.285c1.121-.271 2.164-.982 2.868-2.2l32.466-56.232z" fill="#f4e6f4"/></g></g><g><g><path d="m351.262 308.653c0 8.112-6.233 16.067-16.084 15.786h-.439c-10.728 0-18.332 10.658-14.697 20.86.667 1.861.965 3.67.965 5.408 0 12.046-14.434 20.492-25.215 12.186-2.88-2.212-6.216-3.248-9.482-3.248-6.585 0-12.941 4.179-15.013 11.22-2.212 7.463-8.604 11.203-14.996 11.203-6.391 0-12.783-3.74-14.978-11.203-2.072-7.041-8.428-11.22-15.013-11.22-3.266 0-6.602 1.036-9.482 3.248-3.003 2.318-6.286 3.319-9.465 3.319-9.886 0-18.735-9.816-14.785-20.913.632-1.756.913-3.529.913-5.268 0-8.428-6.953-15.838-16.049-15.593h-.492c-15.224 0-21.475-19.772-8.78-28.499 4.53-3.09 6.795-7.989 6.795-12.888 0-4.882-2.265-9.763-6.795-12.871-4.724-3.231-6.813-7.989-6.813-12.695 0-8.112 6.234-16.067 16.084-15.803h.439c10.728 0 18.332-10.641 14.697-20.843-.667-1.861-.966-3.67-.966-5.426 0-12.046 14.434-20.492 25.215-12.186 2.88 2.212 6.216 3.248 9.482 3.248 6.585 0 12.941-4.179 15.013-11.22 2.195-7.463 8.587-11.203 14.978-11.203s12.783 3.74 14.996 11.203c3.09 10.536 15.803 14.662 24.495 7.972 3.003-2.318 6.286-3.319 9.464-3.319 9.886 0 18.736 9.816 14.785 20.931-.632 1.756-.913 3.529-.913 5.268 0 8.428 6.953 15.821 16.049 15.575h.474c15.241 0 21.492 19.789 8.797 28.498-4.53 3.108-6.796 7.989-6.796 12.871 0 4.899 2.265 9.798 6.796 12.888 4.726 3.232 6.816 8.008 6.816 12.714z" fill="#c0405c"/><path d="m351.262 308.653c0 8.112-6.233 16.067-16.084 15.786h-.439c-10.728 0-18.332 10.658-14.697 20.86.667 1.861.965 3.67.965 5.408 0 12.046-14.434 20.492-25.215 12.186-2.88-2.212-6.216-3.248-9.482-3.248-6.585 0-12.941 4.179-15.013 11.22-2.212 7.463-8.604 11.203-14.996 11.203v-198.015c6.391 0 12.783 3.74 14.996 11.203 3.09 10.536 15.803 14.662 24.495 7.972 3.003-2.318 6.286-3.319 9.464-3.319 9.886 0 18.736 9.816 14.785 20.931-.632 1.756-.913 3.529-.913 5.268 0 8.428 6.953 15.821 16.049 15.575h.474c15.241 0 21.492 19.789 8.797 28.498-4.53 3.108-6.796 7.989-6.796 12.871 0 4.899 2.265 9.798 6.796 12.888 4.724 3.231 6.814 8.007 6.814 12.713z" fill="#e9465e"/></g><g><path d="m323.844 283.068c0 37.288-30.237 67.525-67.541 67.525-37.288 0-67.525-30.237-67.525-67.525 0-37.304 30.237-67.541 67.525-67.541 37.304 0 67.541 30.237 67.541 67.541z" fill="#f4e6f4"/><path d="m323.844 283.068c0 37.288-30.237 67.525-67.541 67.525v-135.066c37.304 0 67.541 30.237 67.541 67.541z" fill="#fff"/></g><g><path d="m313.861 283.069c0 31.782-25.759 57.541-57.559 57.541-31.782 0-57.541-25.759-57.541-57.541 0-31.8 25.759-57.559 57.541-57.559 31.8 0 57.559 25.759 57.559 57.559z" fill="#f39e22"/><path d="m313.861 283.069c0 31.782-25.759 57.541-57.559 57.541v-115.1c31.8 0 57.559 25.759 57.559 57.559z" fill="#f9c744"/></g></g><g><path d="m294.884 273.546-17.126 12.439c-2.56 1.867-3.637 5.16-2.658 8.174l6.54 20.133c.765 2.34-1.919 4.291-3.909 2.846l-17.126-12.446c-1.277-.933-2.787-1.394-4.298-1.394s-3.021.46-4.298 1.394l-17.126 12.446c-1.99 1.446-4.674-.506-3.909-2.846l6.54-20.133c.979-3.014-.097-6.307-2.658-8.174l-17.126-12.439c-1.99-1.452-.966-4.602 1.497-4.602h21.17c3.163 0 5.97-2.035 6.949-5.049l6.54-20.133c.382-1.167 1.4-1.757 2.418-1.757s2.035.59 2.418 1.757l6.54 20.133c.979 3.014 3.785 5.049 6.949 5.049h21.17c2.469 0 3.493 3.15 1.503 4.602z" fill="#f4e6f4"/><path d="m294.884 273.546-17.126 12.439c-2.56 1.867-3.637 5.16-2.658 8.174l6.54 20.133c.765 2.34-1.919 4.291-3.909 2.846l-17.126-12.446c-1.277-.933-2.787-1.394-4.298-1.394v-61.294c1.018 0 2.035.59 2.418 1.757l6.54 20.133c.979 3.014 3.785 5.049 6.949 5.049h21.17c2.466.001 3.49 3.151 1.5 4.603z" fill="#fff"/></g></g></g><g><path d="m448.22 307.371h-10.57c-7.352 0-13.312-5.96-13.312-13.312v-10.57c0-3.193-2.588-5.781-5.781-5.781-3.193 0-5.781 2.588-5.781 5.781v10.57c0 7.352-5.96 13.312-13.312 13.312h-10.57c-3.193 0-5.781 2.588-5.781 5.781 0 3.193 2.588 5.781 5.781 5.781h10.57c7.352 0 13.312 5.96 13.312 13.312v10.57c0 3.193 2.588 5.781 5.781 5.781 3.193 0 5.781-2.588 5.781-5.781v-10.57c0-7.352 5.96-13.312 13.312-13.312h10.57c3.193 0 5.781-2.588 5.781-5.781 0-3.193-2.588-5.781-5.781-5.781z" fill="#fff"/><g fill="#9acdae"><path d="m414.114 183.169h-8.125c-5.652 0-10.233-4.582-10.233-10.233v-8.125c0-2.454-1.99-4.444-4.444-4.444-2.454 0-4.444 1.99-4.444 4.444v8.125c0 5.652-4.582 10.233-10.233 10.233h-8.125c-2.454 0-4.444 1.99-4.444 4.444 0 2.454 1.99 4.444 4.444 4.444h8.125c5.652 0 10.233 4.582 10.233 10.233v8.125c0 2.454 1.99 4.444 4.444 4.444 2.454 0 4.444-1.99 4.444-4.444v-8.125c0-5.652 4.582-10.233 10.233-10.233h8.125c2.454 0 4.444-1.99 4.444-4.444 0-2.454-1.99-4.444-4.444-4.444z"/><path d="m151.87 178.998h-10.57c-7.352 0-13.312-5.96-13.312-13.312v-10.57c0-3.193-2.588-5.781-5.781-5.781-3.193 0-5.781 2.588-5.781 5.781v10.57c0 7.352-5.96 13.312-13.312 13.312h-10.57c-3.193 0-5.781 2.588-5.781 5.781 0 3.193 2.588 5.781 5.781 5.781h10.57c7.352 0 13.312 5.96 13.312 13.312v10.57c0 3.193 2.588 5.781 5.781 5.781 3.193 0 5.781-2.588 5.781-5.781v-10.57c0-7.352 5.96-13.312 13.312-13.312h10.57c3.193 0 5.781-2.588 5.781-5.781 0-3.193-2.588-5.781-5.781-5.781z"/></g></g></g></svg>